<svg version="1.1" id="Layer_1" xmlns="http://www.w3.org/2000/svg" xmlns:xlink="http://www.w3.org/1999/xlink" x="0px" y="0px"
	 width="100%" viewBox="0 0 512 512" enable-background="new 0 0 512 512" xml:space="preserve">

  <!-- Fondo crema -->
  <rect width="512" height="512" rx="90" fill="#F6EFE6"/>

  <!-- Anillo exterior — marrón oscuro -->
  <path fill="#5A3E2B" fill-rule="evenodd" opacity="1.000000" stroke="none"
	d="
M99.771744,382.200562
	C77.864151,354.001862 63.260807,322.600494 58.265549,287.745270
	C47.194065,210.492249 69.998039,144.640640 128.203369,91.886696
	C155.859512,66.820755 188.252182,50.431454 224.819092,43.353062
	C290.012634,30.733294 348.892975,45.456676 400.223633,87.596764
	C439.333038,119.703728 463.754486,161.184219 473.772675,210.834015
	C482.669678,254.927216 477.835449,297.693787 459.322632,338.683533
	C433.689026,395.439606 391.044098,434.111206 332.451538,454.584961
	C298.855713,466.324219 264.190643,468.350372 229.006546,461.742279
	C184.463303,453.376404 146.860962,432.499115 115.304070,400.274292
	C109.817162,394.671265 104.793663,388.670868 99.771744,382.200562
M449.277649,198.213989
	C447.350037,192.541168 445.649750,186.778992 443.460510,181.209000
	C413.579712,105.184395 334.893555,52.153515 247.979630,61.148762
	C205.155579,65.580879 167.894516,82.427185 137.044754,112.056740
	C94.960014,152.476913 74.491127,202.106064 76.937912,260.906219
	C78.187881,290.945038 85.828758,318.994934 100.649818,345.086548
	C130.363617,397.395966 174.482574,429.996277 233.805313,441.002808
	C276.188660,448.866516 316.765533,442.666077 354.829773,422.267700
	C397.041138,399.646942 426.642456,365.659546 444.175079,321.136383
	C453.268311,298.044525 456.875641,273.925415 456.640045,249.266953
	C456.477539,232.256790 454.120667,215.435760 449.277649,198.213989
z"/>

  <!-- Anillo medio — dorado -->
  <path fill="#C8A165" fill-rule="evenodd" opacity="1.000000" stroke="none"
	d="
M430.445221,192.645782
	C452.113342,256.771484 440.749542,314.761505 398.283691,366.205688
	C368.511627,402.272308 329.030029,422.294189 282.629242,426.680969
	C236.335297,431.057617 194.516876,417.825592 158.173309,388.770477
	C124.162560,361.580322 103.287926,326.042297 95.382301,283.347473
	C86.664429,236.266022 96.216835,192.629913 123.137131,153.041672
	C150.758850,112.421913 189.153595,87.835800 237.290283,78.904366
	C275.458862,71.822441 312.005432,78.060104 346.243988,95.968781
	C386.612457,117.083717 414.647003,149.392838 430.445221,192.645782
M162.623810,373.864655
	C208.140839,410.498108 258.789154,422.388916 315.218597,404.916229
	C385.742676,383.079163 431.139191,314.313812 425.984009,242.202286
	C424.018890,214.713455 416.561188,189.169998 401.659332,165.990005
	C372.114380,120.032524 329.534271,95.558113 275.445740,91.454491
	C249.483490,89.484772 224.291275,94.316711 200.697601,105.703758
	C145.305099,132.437897 113.530228,176.761826 107.766403,237.662430
	C102.678207,291.424469 121.915306,336.982452 162.623810,373.864655
z"/>

  <!-- Anillo interior — beige claro -->
  <path fill="#EDE3D6" fill-rule="evenodd" opacity="1.000000" stroke="none"
	d="
M148.613312,294.390961
	C164.975037,335.846069 194.159851,362.511444 236.957932,374.030090
	C237.279251,374.116608 237.584885,374.271576 237.909485,374.334076
	C247.775406,376.234009 247.124542,374.568787 247.195801,386.836823
	C247.219223,390.867523 245.248245,391.618561 241.787094,390.996216
	C220.767136,387.216583 201.549072,379.046570 184.356857,366.501862
	C153.813110,344.214874 134.431747,314.465149 127.730629,277.188690
	C119.149406,229.453766 132.017639,187.619019 165.537552,152.749649
	C199.953674,116.947998 242.697739,103.767647 291.263153,111.541267
	C348.078705,120.635437 395.109772,168.343063 405.438965,224.740234
	C411.965698,260.375946 406.438599,293.863220 387.660004,324.656830
	C365.704712,360.659668 333.615204,382.807373 292.084747,390.973480
	C291.758301,391.037659 291.425507,391.070435 291.095184,391.113922
	C280.572510,392.498627 280.630920,392.397827 280.882812,381.794189
	C280.982208,377.610291 283.124573,376.419250 286.646515,375.816956
	C324.646851,369.318665 353.967804,349.641876 374.083496,316.865601
	C388.759460,292.952667 394.163788,266.656799 391.077545,238.756622
	C386.127350,194.005386 363.770294,160.001801 324.015717,139.740189
	C278.440735,116.512138 233.317245,120.455437 191.603104,150.591888
	C163.475983,170.912354 147.756210,199.358627 142.523636,233.440903
	C139.363663,254.023514 141.895126,274.279816 148.613312,294.390961
z"/>

  <!-- Planta — verde salvia -->
  <path fill="#5E7F68" opacity="1.000000" stroke="none"
	d="
M244.085587,311.865875
	C241.745529,307.215485 240.524612,301.789948 237.139603,298.893860
	C233.047043,295.392456 228.340164,300.417419 223.839218,301.346954
	C205.455856,305.143433 184.506210,296.482758 172.458893,279.493256
	C162.856384,265.951477 159.569412,250.438248 158.837402,234.242996
	C158.599091,228.971130 161.041702,224.666122 166.191025,222.878555
	C186.950256,215.672012 218.280182,216.469894 237.719254,234.719147
	C251.458466,247.617432 254.035080,263.402039 248.605728,280.503632
	C246.041641,288.580109 250.807114,292.716431 255.211426,297.946594
	C255.706787,294.087524 256.469788,290.240875 256.648956,286.367157
	C257.266296,273.018219 259.520172,259.915100 262.269653,246.882126
	C262.787903,244.425644 262.846924,242.444244 260.653656,240.634109
	C240.967163,224.386642 242.324860,196.680222 256.629852,179.141632
	C269.998413,162.751175 288.208710,155.245895 308.752960,152.738617
	C313.377594,152.174225 317.691467,153.290939 319.615723,157.996979
	C328.515076,179.761475 332.651489,201.849182 321.548340,224.099960
	C313.568054,240.092529 299.662689,247.253922 282.283936,248.103821
	C275.215698,248.449493 275.253113,248.144150 274.111572,255.078461
	C270.559998,276.652710 269.277344,298.402374 269.008423,320.231171
	C268.990967,321.648804 269.220367,323.069458 269.425415,325.609589
	C273.301941,320.118561 276.605469,315.617767 279.703369,310.979706
	C281.389954,308.454620 279.803436,305.761108 279.396759,303.227234
	C276.462830,284.945953 281.947113,269.964935 296.862366,258.826538
	C306.954651,251.289825 318.793365,249.390259 330.977814,249.899094
	C340.790375,250.308868 350.479492,251.866165 359.822479,255.281647
	C370.837402,259.308319 373.937073,262.854980 371.994263,274.193939
	C368.675171,293.565094 359.841248,310.181915 343.424835,321.731567
	C328.038666,332.556427 311.675018,332.178528 295.105347,324.349640
	C288.988098,321.459412 289.014832,321.416962 285.458374,327.243011
	C277.920868,339.590729 274.397400,353.134918 273.129822,367.435547
	C272.511108,374.415649 272.120605,381.385620 272.233948,388.381561
	C272.288910,391.772217 270.747375,393.031494 267.420227,393.220459
	C255.926529,393.873199 255.745758,393.758606 255.706177,382.215851
	C255.624039,358.271545 253.656784,334.630859 244.085587,311.865875
z"/>

</svg>
